HIERARCHY
ROOT Hips
{
	OFFSET 0.00000 0.00000 0.00000
	CHANNELS 6 Xposition Yposition Zposition Zrotation Yrotation Xrotation 
	JOINT LHipJoint
	{
		OFFSET 0 0 0
		CHANNELS 3 Zrotation Yrotation Xrotation
		JOINT LeftUpLeg
		{
			OFFSET 1.58895 -1.83665 0.71753
			CHANNELS 3 Zrotation Yrotation Xrotation
			JOINT LeftLeg
			{
				OFFSET 2.50528 -6.88321 0.00000
				CHANNELS 3 Zrotation Yrotation Xrotation
				JOINT LeftFoot
				{
					OFFSET 2.63244 -7.23257 0.00000
					CHANNELS 3 Zrotation Yrotation Xrotation
					JOINT LeftToeBase
					{
						OFFSET 0.23691 -0.65090 1.72750
						CHANNELS 3 Zrotation Yrotation Xrotation
						End Site
						{
							OFFSET 0.00000 -0.00000 0.92561
						}
					}
				}
			}
		}
	}
	JOINT RHipJoint
	{
		OFFSET 0 0 0
		CHANNELS 3 Zrotation Yrotation Xrotation
		JOINT RightUpLeg
		{
			OFFSET -1.51435 -1.83665 0.71753
			CHANNELS 3 Zrotation Yrotation Xrotation
			JOINT RightLeg
			{
				OFFSET -2.54551 -6.99375 0.00000
				CHANNELS 3 Zrotation Yrotation Xrotation
				JOINT RightFoot
				{
					OFFSET -2.66027 -7.30903 0.00000
					CHANNELS 3 Zrotation Yrotation Xrotation
					JOINT RightToeBase
					{
						OFFSET -0.22981 -0.63138 2.03959
						CHANNELS 3 Zrotation Yrotation Xrotation
						End Site
						{
							OFFSET -0.00000 -0.00000 1.07060
						}
					}
				}
			}
		}
	}
	JOINT LowerBack
	{
		OFFSET 0 0 0
		CHANNELS 3 Zrotation Yrotation Xrotation
		JOINT Spine
		{
			OFFSET -0.02651 1.86275 -0.11152
			CHANNELS 3 Zrotation Yrotation Xrotation
			JOINT Spine1
			{
				OFFSET 0.01019 1.86224 0.04087
				CHANNELS 3 Zrotation Yrotation Xrotation
				JOINT Neck
				{
					OFFSET 0 0 0
					CHANNELS 3 Zrotation Yrotation Xrotation
					JOINT Neck1
					{
						OFFSET -0.01926 1.80512 0.08867
						CHANNELS 3 Zrotation Yrotation Xrotation
						JOINT Head
						{
							OFFSET 0.05516 1.76451 -0.38475
							CHANNELS 3 Zrotation Yrotation Xrotation
							End Site
							{
								OFFSET 0.01592 1.82587 -0.14001
							}
						}
					}
				}
				JOINT LeftShoulder
				{
					OFFSET 0 0 0
					CHANNELS 3 Zrotation Yrotation Xrotation
					JOINT LeftArm
					{
						OFFSET 3.47116 1.51376 0.14491
						CHANNELS 3 Zrotation Yrotation Xrotation
						JOINT LeftForeArm
						{
							OFFSET 4.78095 -0.00000 0.00000
							CHANNELS 3 Zrotation Yrotation Xrotation
							JOINT LeftHand
							{
								OFFSET 3.58615 -0.00000 -0.00000
								CHANNELS 3 Zrotation Yrotation Xrotation
								JOINT LeftFingerBase
								{
									OFFSET 0 0 0
									CHANNELS 3 Zrotation Yrotation Xrotation
									JOINT LeftHandIndex1
									{
										OFFSET 0.65981 -0.00000 0.00000
										CHANNELS 3 Zrotation Yrotation Xrotation
										End Site
										{
											OFFSET 0.53196 -0.00000 0.00000
										}
									}
								}
								JOINT LThumb
								{
									OFFSET 0 0 0
									CHANNELS 3 Zrotation Yrotation Xrotation
									End Site
									{
										OFFSET 0.54008 -0.00000 0.54008
									}
								}
							}
						}
					}
				}
				JOINT RightShoulder
				{
					OFFSET 0 0 0
					CHANNELS 3 Zrotation Yrotation Xrotation
					JOINT RightArm
					{
						OFFSET -3.31725 1.61216 0.35156
						CHANNELS 3 Zrotation Yrotation Xrotation
						JOINT RightForeArm
						{
							OFFSET -4.48913 -0.00000 0.00000
							CHANNELS 3 Zrotation Yrotation Xrotation
							JOINT RightHand
							{
								OFFSET -3.70510 -0.00000 0.00000
								CHANNELS 3 Zrotation Yrotation Xrotation
								JOINT RightFingerBase
								{
									OFFSET 0 0 0
									CHANNELS 3 Zrotation Yrotation Xrotation
									JOINT RightHandIndex1
									{
										OFFSET -0.44914 -0.00000 0.00000
										CHANNELS 3 Zrotation Yrotation Xrotation
										End Site
										{
											OFFSET -0.36211 -0.00000 0.00000
										}
									}
								}
								JOINT RThumb
								{
									OFFSET 0 0 0
									CHANNELS 3 Zrotation Yrotation Xrotation
									End Site
									{
										OFFSET -0.36763 -0.00000 0.36763
									}
								}
							}
						}
					}
				}
			}
		}
	}
}
MOTION
Frames: 13
Frame Time: .0083333
-1.3900 18.1344 5.8674 -2.9800 -4.1817 -0.8625 0.0000 0.0000 0.0000 -12.3562 1.3209 19.0804 0.7452 -5.5143 -15.3814 -0.8897 17.0443 -11.2994 0.5166 -4.6067 -12.7900 0.0000 0.0000 0.0000 19.2271 -5.5432 11.5992 -0.0604 1.5857 -4.3621 -0.5991 -4.0153 -16.6338 -0.0697 -1.7030 4.6855 4.1713 -2.0554 7.3488 0.5241 -2.3577 -0.0116 -1.5370 -1.2502 -4.2823 -12.1729 -7.0474 -8.3717 -0.8342 -7.5394 24.8788 0.8794 -4.7401 9.7732 0.0000 -0.0000 0.0000 -96.5237 -29.1569 78.9988 89.9302 -60.0000 -59.9396 -0.0000 0.0000 -28.8358 18.8025 -31.9081 -10.2018 -7.1250 0.0000 -0.0000 -7.2862 -3.1154 7.7329 0.0000 -0.0000 0.0000 79.6638 10.5098 45.6673 -128.6479 53.5265 -92.7423 0.0000 -0.0000 -10.6695 -28.6085 -35.0838 17.4056 7.1250 -0.0000 -0.0000 6.5371 -68.5378 -3.6979
-1.3895 18.1352 5.8384 -2.9569 -5.0736 -0.8616 0.0000 0.0000 0.0000 -12.4060 1.6724 18.9457 0.7231 -5.4336 -15.1495 -0.9083 17.2830 -11.7097 0.4879 -4.4790 -12.4282 0.0000 0.0000 0.0000 19.2320 -4.7701 12.0732 -0.0833 1.8620 -5.1244 -0.5497 -4.5580 -16.4120 -0.0677 -1.6786 4.6181 4.0699 -2.1772 7.7777 0.7682 -2.4975 0.0489 -1.1967 -1.3160 -4.4532 -11.6271 -6.5464 -8.7600 -0.9791 -6.8592 23.8821 0.8331 -4.3586 9.4126 0.0000 -0.0000 0.0000 -98.4993 -30.4489 78.8482 86.4568 -59.9525 -56.9320 -0.0000 0.0000 -27.0661 20.2378 -32.9806 -11.3480 -7.1250 0.0000 -0.0000 -6.6257 -4.4824 7.1698 0.0000 -0.0000 0.0000 80.4926 13.4474 46.9987 -125.4483 54.6741 -90.1501 0.0000 -0.0000 -15.4520 -28.5301 -36.7336 18.0117 7.1250 -0.0000 -0.0000 8.1934 -70.1703 -4.9393
-1.3890 18.1380 5.8093 -2.9813 -6.0165 -0.8653 0.0000 0.0000 0.0000 -12.3766 2.1346 18.8072 0.7039 -5.3626 -14.9457 -0.9203 17.4750 -12.1255 0.4341 -4.2280 -11.7189 0.0000 0.0000 0.0000 19.3328 -3.9288 12.4735 -0.1042 2.0812 -5.7300 -0.5004 -5.1230 -16.2214 -0.0523 -1.4757 4.0587 4.0705 -2.2579 8.3108 1.0038 -2.5675 0.1015 -0.9247 -1.3502 -4.6907 -11.0506 -6.0424 -9.2215 -1.1706 -6.1685 22.8783 0.7620 -3.9736 9.0713 -0.0000 0.0000 0.0000 -100.1854 -31.3742 78.4199 84.1977 -59.8724 -54.9772 -0.0000 0.0000 -25.5774 21.9595 -33.7347 -12.6214 -7.1250 0.0000 -0.0000 -5.7851 -5.6127 6.3543 -0.0000 0.0000 0.0000 81.6589 16.1375 47.9226 -122.6854 55.5508 -87.8836 0.0000 -0.0000 -21.0909 -28.3676 -38.4975 18.5785 7.1250 -0.0000 -0.0000 10.4283 -71.8518 -6.6830
-1.3894 18.1439 5.7792 -3.0925 -7.0185 -0.7737 0.0000 0.0000 0.0000 -12.2550 2.4983 18.6059 0.6824 -5.2818 -14.7141 -0.9344 17.7285 -12.7040 0.3533 -3.8189 -10.5677 0.0000 0.0000 0.0000 19.5708 -3.0022 12.7726 -0.1258 2.2860 -6.2968 -0.4448 -5.7293 -15.9989 -0.0281 -1.0813 2.9726 4.2130 -2.2795 8.7662 1.2355 -2.5474 0.1436 -0.7492 -1.3428 -4.8975 -10.5989 -5.5708 -9.5818 -1.2652 -5.5456 21.7968 0.7371 -3.6185 8.7065 -0.0000 0.0000 0.0000 -101.5630 -32.0068 77.6776 83.0993 -59.8193 -54.0275 -0.0000 0.0000 -23.8015 23.8264 -34.5239 -14.0513 -7.1250 0.0000 -0.0000 -4.8940 -6.8426 5.4612 -0.0000 0.0000 0.0000 83.1507 18.6299 48.5103 -119.9722 56.3173 -85.6358 0.0000 -0.0000 -26.6886 -27.5228 -39.1980 18.2277 7.1250 -0.0000 -0.0000 12.5756 -72.2397 -8.1775
-1.3882 18.1497 5.7558 -3.2108 -8.0908 -0.5935 0.0000 0.0000 0.0000 -12.1555 2.8528 18.2741 0.6476 -5.1477 -14.3303 -0.9433 17.9757 -13.3698 0.2935 -3.4835 -9.6280 0.0000 0.0000 0.0000 19.8111 -2.0142 13.1116 -0.1559 2.5440 -7.0116 -0.3863 -6.3328 -15.7569 -0.0164 -0.8278 2.2751 4.4233 -2.2323 9.0412 1.4456 -2.4376 0.1672 -0.6526 -1.2924 -5.0221 -10.4124 -5.1147 -9.8784 -1.0894 -4.9662 20.8260 0.8371 -3.2816 8.3945 0.0000 -0.0000 0.0000 -102.6720 -32.3376 76.6429 82.8780 -59.8075 -53.8362 -0.0000 0.0000 -21.4873 25.6192 -35.7985 -15.6686 -7.1250 0.0000 -0.0000 -4.1641 -8.5826 4.7506 0.0000 -0.0000 0.0000 84.7768 20.8521 48.8957 -117.4690 56.9475 -83.5451 0.0000 -0.0000 -31.9111 -25.3103 -39.6028 16.7763 7.1250 -0.0000 -0.0000 16.2635 -71.8656 -10.4756
-1.3843 18.1532 5.7468 -3.1081 -9.2113 -0.4419 0.0000 0.0000 0.0000 -12.3646 3.1437 17.9173 0.5954 -4.9400 -13.7374 -0.9414 18.2074 -14.1930 0.2512 -3.2250 -8.9058 0.0000 0.0000 0.0000 19.7760 -1.0166 13.6105 -0.1975 2.8617 -7.8941 -0.3282 -6.9191 -15.5202 -0.0133 -0.7440 2.0446 4.5045 -2.1007 9.1496 1.5541 -2.2438 0.2027 -0.6085 -1.1974 -5.0356 -10.2258 -4.6847 -10.1668 -0.9344 -4.4181 20.0148 0.9218 -2.9666 8.1398 -0.0000 -0.0000 0.0000 -103.5590 -32.5135 75.6738 83.0194 -59.8151 -53.9584 -0.0000 0.0000 -18.8761 27.3881 -37.8373 -17.6305 -7.1250 0.0000 -0.0000 -3.6598 -11.1246 4.3051 -0.0000 -0.0000 0.0000 86.3923 22.9127 49.1365 -115.2590 57.4463 -81.6874 0.0000 -0.0000 -37.1324 -23.1689 -41.1361 15.7237 7.1250 -0.0000 -0.0000 21.6195 -72.5151 -14.3120
-1.3813 18.1560 5.7457 -2.5843 -10.1951 -0.4698 0.0000 0.0000 0.0000 -13.0402 3.4639 17.5686 0.5335 -4.6804 -12.9991 -0.9172 18.2876 -14.9599 0.2250 -3.0535 -8.4278 0.0000 0.0000 0.0000 19.2653 -0.1920 14.2380 -0.2451 3.1859 -8.7968 -0.2707 -7.4557 -15.2590 -0.0099 -0.6440 1.7698 4.2297 -1.9384 9.2421 1.5069 -2.0568 0.2749 -0.5289 -1.0979 -4.9946 -9.8667 -4.3342 -10.4118 -1.0433 -3.9648 19.2464 0.8794 -2.7102 7.8900 0.0000 0.0000 0.0000 -104.1844 -32.7303 74.8846 83.2244 -59.8258 -54.1356 -0.0000 0.0000 -15.3697 29.3789 -39.9974 -19.8932 -7.1250 0.0000 -0.0000 -3.1569 -13.8777 3.8270 0.0000 0.0000 0.0000 88.1624 24.7690 49.2644 -113.4972 57.8074 -80.1994 0.0000 -0.0000 -42.5764 -21.0953 -43.6953 14.9226 7.1250 -0.0000 -0.0000 29.4040 -73.9259 -20.5503
-1.3787 18.1559 5.7474 -1.8373 -11.0031 -0.6796 0.0000 0.0000 0.0000 -13.9230 3.9120 17.2992 0.4784 -4.4355 -12.3051 -0.8854 18.2415 -15.4537 0.2342 -3.1144 -8.5975 0.0000 0.0000 0.0000 18.5174 0.4582 14.8675 -0.2845 3.4302 -9.4788 -0.2276 -7.8242 -15.0344 -0.0062 -0.5103 1.4022 3.7827 -1.7773 9.3755 1.3559 -1.8939 0.3713 -0.4568 -1.0074 -4.9513 -9.4442 -4.0506 -10.5745 -1.2394 -3.6100 18.5736 0.7873 -2.5075 7.6633 -0.0000 -0.0000 0.0000 -104.5240 -33.0905 74.2162 83.3422 -59.8318 -54.2374 -0.0000 0.0000 -10.8184 31.6517 -41.9081 -22.3794 -7.1250 0.0000 -0.0000 -2.5473 -16.4957 3.1684 -0.0000 -0.0000 0.0000 90.1902 26.2071 49.2830 -112.4984 57.9982 -79.3532 0.0000 -0.0000 -48.7014 -18.4287 -46.3974 13.5657 7.1250 -0.0000 -0.0000 39.3766 -74.9342 -28.7728
-1.3745 18.1555 5.7497 -1.4327 -11.7443 -0.7249 0.0000 0.0000 0.0000 -14.4495 4.2106 17.1168 0.4481 -4.2947 -11.9072 -0.8828 18.3839 -15.8943 0.2520 -3.2297 -8.9190 0.0000 0.0000 0.0000 17.9891 0.5531 14.9146 -0.3005 3.5244 -9.7424 -0.2015 -7.5810 -14.3906 -0.0049 -0.4537 1.2468 3.7619 -1.6123 9.3663 1.2483 -1.6842 0.4178 -0.5874 -0.9036 -4.8920 -8.9764 -3.8073 -10.6783 -1.4681 -3.3199 18.0316 0.6701 -2.3404 7.4743 0.0000 -0.0000 0.0000 -104.6956 -33.5883 73.5670 83.1703 -59.8230 -54.0889 -0.0000 0.0000 -6.3628 33.8123 -44.0863 -24.9843 -7.1250 0.0000 -0.0000 -2.1748 -19.3674 2.7745 0.0000 -0.0000 0.0000 91.2674 28.0904 49.4274 -110.6492 58.3259 -77.7822 0.0000 -0.0000 -56.4606 -16.2630 -47.8222 12.1986 7.1250 -0.0000 -0.0000 45.7439 -75.0212 -33.8958
-1.3705 18.1608 5.7440 -1.7212 -12.3934 -0.4079 0.0000 0.0000 0.0000 -14.2183 4.2797 16.9093 0.4451 -4.2807 -11.8678 -0.9162 18.7619 -16.3177 0.2399 -3.1522 -8.7028 0.0000 0.0000 0.0000 18.2964 1.0481 14.5893 -0.2933 3.4824 -9.6250 -0.1994 -7.3843 -14.1474 -0.0069 -0.5366 1.4745 4.4665 -1.4630 9.2210 1.3003 -1.4154 0.3744 -0.9675 -0.7864 -4.8620 -8.7656 -3.6736 -10.6429 -1.4559 -3.1952 17.4899 0.6584 -2.2477 7.2791 0.0000 -0.0000 0.0000 -104.8101 -34.1289 72.7006 82.8242 -59.8045 -53.7897 -0.0000 0.0000 -2.3823 35.5546 -46.6290 -27.4543 -7.1250 0.0000 -0.0000 -2.2383 -22.4428 2.9249 0.0000 -0.0000 0.0000 92.1450 29.7124 49.5318 -109.1753 58.5640 -76.5262 0.0000 -0.0000 -63.2079 -14.3666 -48.8148 10.9107 7.1250 -0.0000 -0.0000 50.5146 -74.8647 -37.6463
-1.3686 18.1699 5.7303 -2.4400 -12.8799 0.0875 0.0000 0.0000 0.0000 -13.4630 4.3361 16.6979 0.4634 -4.3663 -12.1096 -0.9636 19.1397 -16.5104 0.2173 -3.0007 -8.2807 0.0000 0.0000 0.0000 19.1269 1.7218 14.0540 -0.2692 3.3374 -9.2194 -0.2052 -7.2903 -14.1350 -0.0081 -0.5815 1.5980 5.5768 -1.3367 9.0973 1.4576 -1.1289 0.2936 -1.4649 -0.6702 -4.8828 -8.8997 -3.6785 -10.6482 -1.1377 -3.2444 17.0971 0.7818 -2.2388 7.1598 0.0000 -0.0000 0.0000 -104.9416 -34.7386 71.6514 82.5129 -59.7871 -53.5206 -0.0000 -0.0000 1.2065 37.0376 -49.1249 -29.7077 -7.1250 0.0000 -0.0000 -2.5310 -25.3388 3.3730 0.0000 -0.0000 0.0000 91.8138 31.7622 49.7541 -107.3901 58.8259 -75.0009 0.0000 -0.0000 -68.4148 -13.1212 -49.5222 10.0545 7.1250 -0.0000 -0.0000 53.7830 -74.7602 -40.2669
-1.3689 18.1764 5.7212 -2.7676 -13.1649 0.3514 0.0000 0.0000 0.0000 -13.0759 4.5752 16.6431 0.4933 -4.5031 -12.4966 -1.0002 19.3245 -16.3763 0.2134 -2.9741 -8.2068 0.0000 0.0000 0.0000 19.5260 2.1808 13.5792 -0.2361 3.1271 -8.6329 -0.2182 -7.1293 -14.1625 -0.0065 -0.5212 1.4322 6.2865 -1.2305 9.0816 1.4995 -0.9118 0.2653 -1.8471 -0.5800 -4.9010 -8.9842 -3.7386 -10.9681 -0.9655 -3.3064 17.0732 0.8399 -2.2580 7.2147 -0.0000 0.0000 0.0000 -105.1534 -35.4279 70.7422 82.2987 -59.7747 -53.3356 -0.0000 -0.0000 3.5005 38.3590 -51.1175 -31.6361 -7.1250 0.0000 -0.0000 -2.8044 -27.6609 3.7888 -0.0000 0.0000 0.0000 92.0414 33.1753 50.6573 -107.0817 58.8683 -74.7369 0.0000 -0.0000 -67.6840 -13.6337 -49.0271 10.3775 7.1250 -0.0000 -0.0000 51.7896 -74.6996 -38.5441
-1.3715 18.1784 5.7184 -2.7273 -13.2915 0.3596 0.0000 0.0000 0.0000 -13.0714 4.8324 16.7314 0.5188 -4.6162 -12.8171 -1.0243 19.4008 -16.1561 0.2139 -2.9776 -8.2165 0.0000 0.0000 0.0000 19.5080 2.4021 13.3351 -0.2095 2.9470 -8.1314 -0.2387 -6.9187 -14.2543 -0.0081 -0.5829 1.6019 6.5856 -1.1492 9.1376 1.4448 -0.7717 0.2871 -2.0900 -0.5181 -4.9039 -8.9169 -3.7788 -11.2774 -0.9819 -3.3344 17.1272 0.8152 -2.2702 7.2860 0.0000 -0.0000 0.0000 -105.3026 -36.0504 70.1885 82.4035 -59.7808 -53.4261 -0.0000 -0.0000 3.6342 39.5127 -51.9058 -32.9853 -7.1250 0.0000 -0.0000 -2.6903 -28.8058 3.6562 0.0000 -0.0000 0.0000 92.4236 34.0385 51.4734 -107.8911 58.7553 -75.4294 0.0000 -0.0000 -65.1153 -15.0055 -49.0805 11.4502 7.1250 -0.0000 -0.0000 50.8551 -75.2538 -38.2955
